<svg xmlns="http://www.w3.org/2000/svg" width="256" height="256" viewBox="0 0 256 256" role="img" aria-label="GoScript icon">
  <defs>
    <linearGradient id="bg" x1="40" y1="28" x2="216" y2="228" gradientUnits="userSpaceOnUse">
      <stop offset="0" stop-color="#10213d"/>
      <stop offset="0.62" stop-color="#142f34"/>
      <stop offset="1" stop-color="#0d1829"/>
    </linearGradient>
    <linearGradient id="accent" x1="74" y1="58" x2="198" y2="202" gradientUnits="userSpaceOnUse">
      <stop offset="0" stop-color="#50e3ff"/>
      <stop offset="1" stop-color="#52f28c"/>
    </linearGradient>
    <filter id="shadow" x="-20%" y="-20%" width="140%" height="140%">
      <feDropShadow dx="0" dy="10" stdDeviation="12" flood-color="#020817" flood-opacity="0.35"/>
    </filter>
  </defs>

  <rect width="256" height="256" rx="38" fill="url(#bg)"/>
  <path d="M58 71h88c24 0 43 19 43 43v45c0 19-15 34-34 34H81c-17 0-31-14-31-31v-84c0-4 4-7 8-7z" fill="#081423" opacity="0.55"/>
  <path d="M70 70h96c19 0 34 15 34 34v78c0 6-5 11-11 11H91c-19 0-34-15-34-34V83c0-7 6-13 13-13z" fill="#13263f" filter="url(#shadow)"/>
  <path d="M70 70h96c19 0 34 15 34 34v18H57V83c0-7 6-13 13-13z" fill="#1d4660"/>
  <circle cx="80" cy="96" r="7" fill="#ff6b6b"/>
  <circle cx="103" cy="96" r="7" fill="#ffd166"/>
  <circle cx="126" cy="96" r="7" fill="#52f28c"/>

  <path d="M77 151l24-25 11 11-14 14 14 14-11 11-24-25z" fill="url(#accent)"/>
  <path d="M179 151l-24 25-11-11 14-14-14-14 11-11 24 25z" fill="url(#accent)"/>

  <text x="128" y="166" text-anchor="middle"
        font-family="Segoe UI, Inter, Arial, sans-serif"
        font-size="54" font-weight="800" letter-spacing="1"
        fill="#f5fbff">GS</text>
  <path d="M98 203h88" stroke="url(#accent)" stroke-width="10" stroke-linecap="round"/>
  <path d="M58 212c22 14 50 20 84 18 25-1 45-7 60-18" fill="none" stroke="#50e3ff" stroke-width="5" stroke-linecap="round" opacity="0.28"/>
</svg>
